<svg width="24" height="15" viewBox="0 0 24 15" fill="none" xmlns="http://www.w3.org/2000/svg">
<path d="M6.348 12L4.728 9.66H4.632H2.94V12H0.996V3.6H4.632C5.376 3.6 6.02 3.724 6.564 3.972C7.116 4.22 7.54 4.572 7.836 5.028C8.132 5.484 8.28 6.024 8.28 6.648C8.28 7.272 8.128 7.812 7.824 8.268C7.528 8.716 7.104 9.06 6.552 9.3L8.436 12H6.348ZM6.312 6.648C6.312 6.176 6.16 5.816 5.856 5.568C5.552 5.312 5.108 5.184 4.524 5.184H2.94V8.112H4.524C5.108 8.112 5.552 7.984 5.856 7.728C6.16 7.472 6.312 7.112 6.312 6.648Z" fill="#FF0000"/>
<path d="M19.584 3.456C20.576 3.456 21.348 3.748 21.9 4.332C22.452 4.908 22.728 5.744 22.728 6.84V12H20.784V6.9C20.784 6.308 20.628 5.864 20.316 5.568C20.012 5.264 19.608 5.112 19.104 5.112C18.552 5.112 18.112 5.272 17.784 5.592C17.456 5.904 17.292 6.38 17.292 7.02V12H15.348V6.9C15.348 6.308 15.204 5.864 14.916 5.568C14.628 5.264 14.236 5.112 13.74 5.112C13.196 5.112 12.76 5.272 12.432 5.592C12.104 5.904 11.94 6.38 11.94 7.02V12H9.996V3.6H11.88V4.632C12.136 4.256 12.476 3.968 12.9 3.768C13.324 3.56 13.812 3.456 14.364 3.456C14.94 3.456 15.444 3.564 15.876 3.78C16.308 3.988 16.64 4.292 16.872 4.692C17.16 4.292 17.536 3.988 18 3.78C18.472 3.564 19 3.456 19.584 3.456Z" fill="white"/>
</svg>
