<svg width="57" height="15" viewBox="0 0 57 15" fill="none" xmlns="http://www.w3.org/2000/svg">
<path d="M6.348 12L4.728 9.66H4.632H2.94V12H0.996V3.6H4.632C5.376 3.6 6.02 3.724 6.564 3.972C7.116 4.22 7.54 4.572 7.836 5.028C8.132 5.484 8.28 6.024 8.28 6.648C8.28 7.272 8.128 7.812 7.824 8.268C7.528 8.716 7.104 9.06 6.552 9.3L8.436 12H6.348ZM6.312 6.648C6.312 6.176 6.16 5.816 5.856 5.568C5.552 5.312 5.108 5.184 4.524 5.184H2.94V8.112H4.524C5.108 8.112 5.552 7.984 5.856 7.728C6.16 7.472 6.312 7.112 6.312 6.648ZM12.9402 10.596C13.2762 10.596 13.5722 10.548 13.8282 10.452C14.0922 10.348 14.3362 10.188 14.5602 9.972L15.5562 11.052C14.9482 11.748 14.0602 12.096 12.8922 12.096C12.1642 12.096 11.5202 11.956 10.9602 11.676C10.4002 11.388 9.96822 10.992 9.66422 10.488C9.36022 9.984 9.20822 9.412 9.20822 8.772C9.20822 8.14 9.35622 7.572 9.65222 7.068C9.95622 6.556 10.3682 6.16 10.8882 5.88C11.4162 5.592 12.0082 5.448 12.6642 5.448C13.2802 5.448 13.8402 5.58 14.3442 5.844C14.8482 6.1 15.2482 6.476 15.5442 6.972C15.8482 7.46 16.0002 8.04 16.0002 8.712L11.2242 9.636C11.3602 9.956 11.5722 10.196 11.8602 10.356C12.1562 10.516 12.5162 10.596 12.9402 10.596ZM12.6642 6.864C12.1922 6.864 11.8082 7.016 11.5122 7.32C11.2162 7.624 11.0602 8.044 11.0442 8.58L14.1882 7.968C14.1002 7.632 13.9202 7.364 13.6482 7.164C13.3762 6.964 13.0482 6.864 12.6642 6.864Z" fill="#FF0000"/>
<path d="M27.584 3.456C28.576 3.456 29.348 3.748 29.9 4.332C30.452 4.908 30.728 5.744 30.728 6.84V12H28.784V6.9C28.784 6.308 28.628 5.864 28.316 5.568C28.012 5.264 27.608 5.112 27.104 5.112C26.552 5.112 26.112 5.272 25.784 5.592C25.456 5.904 25.292 6.38 25.292 7.02V12H23.348V6.9C23.348 6.308 23.204 5.864 22.916 5.568C22.628 5.264 22.236 5.112 21.74 5.112C21.196 5.112 20.76 5.272 20.432 5.592C20.104 5.904 19.94 6.38 19.94 7.02V12H17.996V3.6H19.88V4.632C20.136 4.256 20.476 3.968 20.9 3.768C21.324 3.56 21.812 3.456 22.364 3.456C22.94 3.456 23.444 3.564 23.876 3.78C24.308 3.988 24.64 4.292 24.872 4.692C25.16 4.292 25.536 3.988 26 3.78C26.472 3.564 27 3.456 27.584 3.456ZM39.0164 5.544V12H37.2404V11.232C36.9924 11.512 36.6964 11.728 36.3524 11.88C36.0084 12.024 35.6364 12.096 35.2364 12.096C34.3884 12.096 33.7164 11.852 33.2204 11.364C32.7244 10.876 32.4764 10.152 32.4764 9.192V5.544H34.3484V8.916C34.3484 9.956 34.7844 10.476 35.6564 10.476C36.1044 10.476 36.4644 10.332 36.7364 10.044C37.0084 9.748 37.1444 9.312 37.1444 8.736V5.544H39.0164ZM42.9227 12.096C42.3867 12.096 41.8627 12.032 41.3507 11.904C40.8387 11.768 40.4307 11.6 40.1267 11.4L40.7507 10.056C41.0387 10.24 41.3867 10.392 41.7947 10.512C42.2027 10.624 42.6027 10.68 42.9947 10.68C43.7867 10.68 44.1827 10.484 44.1827 10.092C44.1827 9.908 44.0747 9.776 43.8587 9.696C43.6427 9.616 43.3107 9.548 42.8627 9.492C42.3347 9.412 41.8987 9.32 41.5547 9.216C41.2107 9.112 40.9107 8.928 40.6547 8.664C40.4067 8.4 40.2827 8.024 40.2827 7.536C40.2827 7.128 40.3987 6.768 40.6307 6.456C40.8707 6.136 41.2147 5.888 41.6627 5.712C42.1187 5.536 42.6547 5.448 43.2707 5.448C43.7267 5.448 44.1787 5.5 44.6267 5.604C45.0827 5.7 45.4587 5.836 45.7547 6.012L45.1307 7.344C44.5627 7.024 43.9427 6.864 43.2707 6.864C42.8707 6.864 42.5707 6.92 42.3707 7.032C42.1707 7.144 42.0707 7.288 42.0707 7.464C42.0707 7.664 42.1787 7.804 42.3947 7.884C42.6107 7.964 42.9547 8.04 43.4267 8.112C43.9547 8.2 44.3867 8.296 44.7227 8.4C45.0587 8.496 45.3507 8.676 45.5987 8.94C45.8467 9.204 45.9707 9.572 45.9707 10.044C45.9707 10.444 45.8507 10.8 45.6107 11.112C45.3707 11.424 45.0187 11.668 44.5547 11.844C44.0987 12.012 43.5547 12.096 42.9227 12.096ZM47.1257 5.544H48.9977V12H47.1257V5.544ZM48.0617 4.644C47.7177 4.644 47.4377 4.544 47.2217 4.344C47.0057 4.144 46.8977 3.896 46.8977 3.6C46.8977 3.304 47.0057 3.056 47.2217 2.856C47.4377 2.656 47.7177 2.556 48.0617 2.556C48.4057 2.556 48.6857 2.652 48.9017 2.844C49.1177 3.036 49.2257 3.276 49.2257 3.564C49.2257 3.876 49.1177 4.136 48.9017 4.344C48.6857 4.544 48.4057 4.644 48.0617 4.644ZM53.8551 12.096C53.1671 12.096 52.5471 11.956 51.9951 11.676C51.4511 11.388 51.0231 10.992 50.7111 10.488C50.4071 9.984 50.2551 9.412 50.2551 8.772C50.2551 8.132 50.4071 7.56 50.7111 7.056C51.0231 6.552 51.4511 6.16 51.9951 5.88C52.5471 5.592 53.1671 5.448 53.8551 5.448C54.5351 5.448 55.1271 5.592 55.6311 5.88C56.1431 6.16 56.5151 6.564 56.7471 7.092L55.2951 7.872C54.9591 7.28 54.4751 6.984 53.8431 6.984C53.3551 6.984 52.9511 7.144 52.6311 7.464C52.3111 7.784 52.1511 8.22 52.1511 8.772C52.1511 9.324 52.3111 9.76 52.6311 10.08C52.9511 10.4 53.3551 10.56 53.8431 10.56C54.4831 10.56 54.9671 10.264 55.2951 9.672L56.7471 10.464C56.5151 10.976 56.1431 11.376 55.6311 11.664C55.1271 11.952 54.5351 12.096 53.8551 12.096Z" fill="white"/>
</svg>
